<svg width="30" height="30" viewBox="0 0 30 30" fill="none" xmlns="http://www.w3.org/2000/svg">
<g clip-path="url(#clip0)">
<path d="M28.4671 23.3911H28.4386V23.441C28.4386 23.9408 28.2445 24.3844 27.9114 24.7175C27.5784 25.0505 27.1347 25.2447 26.635 25.2447H3.36502C2.86529 25.2447 2.42164 25.0505 2.08859 24.7175C1.75553 24.3844 1.56141 23.9408 1.56141 23.441V9.23954C1.56141 8.7398 1.75553 8.29616 2.08859 7.96311C2.42164 7.63005 2.86529 7.43593 3.36502 7.43593H8.86882C9.32419 7.43593 9.68878 7.07133 9.68878 6.61596V5.78897C9.68878 5.48731 9.79842 5.21525 9.98783 5.02584C10.1772 4.83644 10.4493 4.7268 10.751 4.7268H19.2776C19.5792 4.7268 19.8513 4.83644 20.0407 5.02584C20.2301 5.21525 20.3397 5.48731 20.3397 5.78897V6.61596C20.3397 7.07133 20.7043 7.43593 21.1597 7.43593H26.6635C27.1632 7.43593 27.6069 7.63005 27.9399 7.96311C28.273 8.29616 28.4671 8.7398 28.4671 9.23954V23.3911ZM29.0373 6.83725C28.4291 6.20053 27.5893 5.82452 26.635 5.82452H21.9511V5.81749C21.9511 5.09206 21.6612 4.39438 21.166 3.92798C20.6722 3.43441 20.0039 3.14391 19.2776 3.14391H10.7224C9.96763 3.14391 9.29905 3.43442 8.80495 3.92852C8.31105 4.42241 8.02034 5.09092 8.02034 5.81749V5.82452H3.36502C2.41046 5.82452 1.57057 6.2007 0.962334 6.83767C0.355182 7.44503 -0.05 8.31277 -0.05 9.23954V23.441C-0.05 24.3956 0.326179 25.2355 0.963155 25.8437C1.57052 26.4509 2.43826 26.8561 3.36502 26.8561H26.635C27.5895 26.8561 28.4294 26.4799 29.0377 25.8429C29.6448 25.2356 30.05 24.3678 30.05 23.441V9.23954C30.05 8.28519 29.674 7.44545 29.0373 6.83725Z" fill="white" stroke="white" stroke-width="0.1"/>
<path d="M20.4253 16.3688L20.4253 16.3698C20.4535 17.8662 19.8325 19.2221 18.8432 20.2115C17.8536 21.1727 16.4972 21.7941 15 21.7941C13.5028 21.7941 12.1463 21.1727 11.1568 20.2115C10.168 19.2227 9.5747 17.8666 9.5747 16.3688C9.5747 14.8716 10.1961 13.5151 11.1573 12.5256C12.1462 11.5368 13.5022 10.9435 15 10.9435C16.4972 10.9435 17.8537 11.5649 18.8432 12.5261C19.832 13.515 20.4253 14.8711 20.4253 16.3688ZM15 9.27509C13.047 9.27509 11.2664 10.0793 10.0026 11.343C8.71031 12.6353 7.93477 14.3874 7.93477 16.3403C7.93477 18.2933 8.73894 20.0739 10.0026 21.3376C11.295 22.63 13.0471 23.4055 15 23.4055C16.953 23.4055 18.7336 22.6013 19.9973 21.3376C21.2897 20.0453 22.0652 18.2932 22.0652 16.3403C22.0652 14.3873 21.261 12.6067 19.9973 11.343C18.7336 10.0793 16.953 9.27509 15 9.27509Z" fill="white" stroke="white" stroke-width="0.1"/>
<path d="M25.1521 12.1413C25.9514 12.1413 26.5994 11.4933 26.5994 10.6939C26.5994 9.89457 25.9514 9.24657 25.1521 9.24657C24.3528 9.24657 23.7048 9.89457 23.7048 10.6939C23.7048 11.4933 24.3528 12.1413 25.1521 12.1413Z" fill="white" stroke="white" stroke-width="0.1"/>
</g>
<defs>
<clipPath id="clip0">
<rect width="30" height="30" fill="white"/>
</clipPath>
</defs>
</svg>
