<svg width="30" height="30" viewBox="0 0 30 30" fill="none" xmlns="http://www.w3.org/2000/svg">
<path d="M13.9027 23.3386C14.0468 23.4827 14.2179 23.597 14.4062 23.675C14.5944 23.753 14.7962 23.7931 15 23.7931C15.2038 23.7931 15.4056 23.753 15.5938 23.675C15.7821 23.597 15.9532 23.4827 16.0973 23.3386L21.9491 17.4867C22.2401 17.1957 22.4036 16.801 22.4036 16.3895C22.4036 15.9779 22.2401 15.5832 21.9491 15.2922C21.6581 15.0012 21.2634 14.8378 20.8519 14.8378C20.4404 14.8378 20.0457 15.0012 19.7547 15.2922L16.5517 18.4952V1.55172C16.5517 1.14018 16.3882 0.745494 16.0972 0.45449C15.8062 0.163485 15.4115 0 15 0C14.5885 0 14.1938 0.163485 13.9028 0.45449C13.6118 0.745494 13.4483 1.14018 13.4483 1.55172V18.4952L10.2453 15.2922C9.95432 15.0012 9.55963 14.8378 9.14809 14.8378C8.73655 14.8378 8.34186 15.0012 8.05086 15.2922C7.75986 15.5832 7.59637 15.9779 7.59637 16.3895C7.59637 16.801 7.75986 17.1957 8.05086 17.4867L13.9027 23.3386Z" fill="white"/>
<path d="M28.4483 13.4483C28.0367 13.4483 27.642 13.6118 27.351 13.9028C27.06 14.1938 26.8966 14.5885 26.8966 15V26.8965H3.10345V15C3.10345 14.5885 2.93996 14.1938 2.64896 13.9028C2.35795 13.6118 1.96327 13.4483 1.55172 13.4483C1.14018 13.4483 0.745494 13.6118 0.45449 13.9028C0.163485 14.1938 0 14.5885 0 15V27.4138C0 28.0997 0.272475 28.7575 0.757482 29.2425C1.24249 29.7275 1.9003 30 2.58621 30H27.4138C28.0997 30 28.7575 29.7275 29.2425 29.2425C29.7275 28.7575 30 28.0997 30 27.4138V15C30 14.5885 29.8365 14.1938 29.5455 13.9028C29.2545 13.6118 28.8598 13.4483 28.4483 13.4483Z" fill="white"/>
</svg>
